# xmcd
#
# Track frame offsets:
#	150
#	10048
#	30981
#	53631
#	76576
#	92873
#	109385
#	128249
#	146379
#	164461
#	188542
#	210919
#	226688
#	248510
#	267741
#	284980
#
# Disc length: 4047 seconds
#
# Revision: 0
# Processed by: cddbd v1.5.2PL0 Copyright (c) Steve Scherf et al.
# Submitted via: EasyCDDAExtractor 16.0.9.1
#
DISCID=cd0fcd10
DTITLE=Various Artist - Viva All The Best
DYEAR=1999
DGENRE=Dance, Pop
TTITLE0=Pras feat. Ol' Dirty Bastard - Ghetto Superstar (That Is What You Are)
TTITLE1=Savage Garden - Truly, Madly, Deeply
TTITLE2=Madonna - Frozen
TTITLE3=Janet Jackson - Together Again
TTITLE4=Brandy and Monica - The Boy Is Mine
TTITLE5=Will Smith - Gettin' Jiggy With It
TTITLE6=Run D.M.C. vs. Jason Nevins - It's Like That
TTITLE7=Cher - Believe
TTITLE8=Eagle Eye Cherry - Save Tonight
TTITLE9=Spice Girls - Viva Tonight
TTITLE10=Aerosmith - I Don't Want To Miss A Thing
TTITLE11=Des'ree - Life
TTITLE12=Manic Street Preachers - If You Tolerate This Your Children Will Be N
TTITLE12=ext
TTITLE13=Beastie Boys - Intergalactic
TTITLE14=Mousse T. - Horny '98
TTITLE15=Robbie Williams - Millennium
EXTD=
EXTT0=
EXTT1=
EXTT2=
EXTT3=
EXTT4=
EXTT5=
EXTT6=
EXTT7=
EXTT8=
EXTT9=
EXTT10=
EXTT11=
EXTT12=
EXTT13=
EXTT14=
EXTT15=
PLAYORDER=
